<svg width="40" height="40" viewBox="0 0 40 40" fill="none" xmlns="http://www.w3.org/2000/svg">
<path d="M10.5673 12.7343C10.7633 12.5382 11.0342 12.417 11.3333 12.417H28.6667C28.9658 12.417 29.2367 12.5382 29.4327 12.7343M10.5673 12.7343C10.3713 12.9303 10.25 13.2012 10.25 13.5003V26.5003C10.25 27.0986 10.735 27.5837 11.3333 27.5837H28.6667C29.265 27.5837 29.75 27.0986 29.75 26.5003V13.5003C29.75 13.2012 29.6287 12.9303 29.4327 12.7343M10.5673 12.7343L18.4679 20.6349C19.3141 21.481 20.6859 21.481 21.5321 20.6349L29.4327 12.7343" stroke="#052348" stroke-linecap="round" stroke-linejoin="round"/>
<circle cx="20" cy="20" r="19.5" stroke="#052348"/>
</svg>
