<svg width="40" height="40" viewBox="0 0 40 40" fill="none" xmlns="http://www.w3.org/2000/svg">
<circle cx="20" cy="20" r="19.5" stroke="#052348"/>
<path d="M24 31.0004V27.1304C24.0375 26.6536 23.9731 26.1742 23.811 25.7242C23.6489 25.2742 23.3929 24.8638 23.06 24.5204C26.2 24.1704 29.5 22.9804 29.5 17.5204C29.4997 16.1243 28.9627 14.7816 28 13.7704C28.4559 12.5489 28.4236 11.1988 27.91 10.0004C27.91 10.0004 26.73 9.65043 24 11.4804C21.708 10.8592 19.292 10.8592 17 11.4804C14.27 9.65043 13.09 10.0004 13.09 10.0004C12.5764 11.1988 12.5441 12.5489 13 13.7704C12.0301 14.7891 11.4925 16.1439 11.5 17.5504C11.5 22.9704 14.8 24.1604 17.94 24.5504C17.611 24.8904 17.3573 25.2958 17.1953 25.7403C17.0334 26.1849 16.9668 26.6585 17 27.1304V31.0004M17 28.0004C12 29.5004 12 25.5004 10 25.0004L17 28.0004Z" stroke="#052348" stroke-linecap="round" stroke-linejoin="round"/>
</svg>
