<svg width="40" height="40" viewBox="0 0 40 40" fill="none" xmlns="http://www.w3.org/2000/svg">
<circle cx="20" cy="20" r="19.5" stroke="#052348"/>
<path d="M13.9285 16.75C14.2046 16.75 14.4285 16.9739 14.4285 17.25V30.4502C14.4283 30.7262 14.2045 30.9502 13.9285 30.9502H9.54761C9.2716 30.9502 9.04782 30.7262 9.04761 30.4502V17.25C9.04761 16.9739 9.27147 16.75 9.54761 16.75H13.9285ZM24.8806 15.6494C26.7565 15.6494 28.5557 16.3981 29.8816 17.7295C31.2073 19.061 31.9517 20.867 31.9519 22.749V30.4492C31.9519 30.7254 31.728 30.9492 31.4519 30.9492H27.071C26.7951 30.949 26.571 30.7252 26.571 30.4492V22.749C26.5708 22.2977 26.392 21.8653 26.075 21.5469C25.7578 21.2285 25.3281 21.0498 24.8806 21.0498C24.4331 21.0499 24.0034 21.2284 23.6863 21.5469C23.3693 21.8653 23.1904 22.2978 23.1902 22.749V30.4492C23.1902 30.7254 22.9663 30.9492 22.6902 30.9492H18.3093C18.0333 30.9491 17.8093 30.7253 17.8093 30.4492V22.749C17.8095 20.867 18.5539 19.061 19.8796 17.7295C21.2055 16.3979 23.0047 15.6495 24.8806 15.6494ZM10.0476 29.9502H13.4285V17.75H10.0476V29.9502ZM24.8806 16.6494C23.2712 16.6495 21.7273 17.292 20.5886 18.4355C19.45 19.5792 18.8095 21.1308 18.8093 22.749V29.9492H22.1902V22.749C22.1904 22.0339 22.4732 21.3471 22.9773 20.8408C23.4816 20.3344 24.1665 20.0499 24.8806 20.0498C25.5947 20.0498 26.2796 20.3345 26.7839 20.8408C27.2881 21.3471 27.5708 22.0339 27.571 22.749V29.9492H30.9519V22.749C30.9517 21.131 30.312 19.5791 29.1736 18.4355C28.0348 17.292 26.49 16.6494 24.8806 16.6494ZM11.738 9.0498C13.226 9.0498 14.4285 10.2609 14.4285 11.75C14.4284 13.239 13.2259 14.4502 11.738 14.4502C10.2502 14.4502 9.04771 13.239 9.04761 11.75C9.04761 10.2609 10.2501 9.04983 11.738 9.0498ZM11.738 10.0498C10.8065 10.0498 10.0476 10.8091 10.0476 11.75C10.0477 12.6908 10.8065 13.4502 11.738 13.4502C12.6696 13.4502 13.4284 12.6908 13.4285 11.75C13.4285 10.8091 12.6696 10.0498 11.738 10.0498Z" fill="#052348"/>
</svg>
